/* XPM */
static char *_1034_6ba11b7c158405a6fea537738425cf218586c2820a5e4e22e385089799eccaf5[] = {
/* columns rows colors chars-per-pixel */
"64 64 3 1 ",
"  c black",
". c white",
"X c None",
/* pixels */
"XXXXXXXXXXXXXXXXXXXXXXXXXXXXXXXXXXXXXXXXXXXXXXXXXXXXXXXXXXXXXXXX",
"XXXXXXXXXXXXXXXXXXXXXXXXXXXXXXXXXXXXXXXXXXXXXXXXXXXXXXXXXXXXXXXX",
"XXXXXXXXXXXXXXXXXXXXXXXXXXXXXXXXXXXXXXXXXXXXXXXXXXXXXXXXXXXXXXXX",
"XXXXXXXXXXXXXXXXXXXXXXXXXXXXXXXXXXXXXXXXXXXXXXXXXXXXXXXXXXXXXXXX",
"XXXXXXXXXXXXXXXXXXXXXXXXXXXX        XXXXXXXXXXXXXXXXXXXXXXXXXXXX",
"XXXXXXXXXXXXXXXXXXXXXXXXXXXX        XXXXXXXXXXXXXXXXXXXXXXXXXXXX",
"XXXXXXXXXXXXXXXXXXXXXXXXXXXX        XXXXXXXXXXXXXXXXXXXXXXXXXXXX",
"XXXXXXXXXXXXXXXXXXXXXXXXXXXX        XXXXXXXXXXXXXXXXXXXXXXXXXXXX",
"XXXXXXXXXXXXXXXXXXXXXXXX    ........    XXXXXXXXXXXXXXXXXXXXXXXX",
"XXXXXXXXXXXXXXXXXXXXXXXX    ........    XXXXXXXXXXXXXXXXXXXXXXXX",
"XXXXXXXXXXXXXXXXXXXXXXXX    ........    XXXXXXXXXXXXXXXXXXXXXXXX",
"XXXXXXXXXXXXXXXXXXXXXXXX    ........    XXXXXXXXXXXXXXXXXXXXXXXX",
"XXXXXXXXXXXXXXXXXXXXXXXX    ........    XXXXXXXXXXXXXXXXXXXXXXXX",
"XXXXXXXXXXXXXXXXXXXXXXXX    ........    XXXXXXXXXXXXXXXXXXXXXXXX",
"XXXXXXXXXXXXXXXXXXXXXXXX    ........    XXXXXXXXXXXXXXXXXXXXXXXX",
"XXXXXXXXXXXXXXXXXXXXXXXX    ........    XXXXXXXXXXXXXXXXXXXXXXXX",
"XXXXXXXXXXXXXXXXXXXXXXXXXXXX        XXXXXXXXXXXXXXXXXXXXXXXXXXXX",
"XXXXXXXXXXXXXXXXXXXXXXXXXXXX        XXXXXXXXXXXXXXXXXXXXXXXXXXXX",
"XXXXXXXXXXXXXXXXXXXXXXXXXXXX        XXXXXXXXXXXXXXXXXXXXXXXXXXXX",
"XXXXXXXXXXXXXXXXXXXXXXXXXXXX        XXXXXXXXXXXXXXXXXXXXXXXXXXXX",
"XXXXXXXXXXXXXXXXXXXXXXXX    ........    XXXXXXXXXXXXXXXXXXXXXXXX",
"XXXXXXXXXXXXXXXXXXXXXXXX    ........    XXXXXXXXXXXXXXXXXXXXXXXX",
"XXXXXXXXXXXXXXXXXXXXXXXX    ........    XXXXXXXXXXXXXXXXXXXXXXXX",
"XXXXXXXXXXXXXXXXXXXXXXXX    ........    XXXXXXXXXXXXXXXXXXXXXXXX",
"XXXXXXXXXXXXXXXXXXXX    ............XXXX    XXXXXXXXXXXXXXXXXXXX",
"XXXXXXXXXXXXXXXXXXXX    ............XXXX    XXXXXXXXXXXXXXXXXXXX",
"XXXXXXXXXXXXXXXXXXXX    ............XXXX    XXXXXXXXXXXXXXXXXXXX",
"XXXXXXXXXXXXXXXXXXXX    ............XXXX    XXXXXXXXXXXXXXXXXXXX",
"XXXXXXXXXXXXXXXX    ............XXXX    ....    XXXXXXXXXXXXXXXX",
"XXXXXXXXXXXXXXXX    ............XXXX    ....    XXXXXXXXXXXXXXXX",
"XXXXXXXXXXXXXXXX    ............XXXX    ....    XXXXXXXXXXXXXXXX",
"XXXXXXXXXXXXXXXX    ............XXXX    ....    XXXXXXXXXXXXXXXX",
"XXXXXXXXXXXXXXXX    ............    ........    XXXXXXXXXXXXXXXX",
"XXXXXXXXXXXXXXXX    ............    ........    XXXXXXXXXXXXXXXX",
"XXXXXXXXXXXXXXXX    ............    ........    XXXXXXXXXXXXXXXX",
"XXXXXXXXXXXXXXXX    ............    ........    XXXXXXXXXXXXXXXX",
"XXXXXXXXXXXXXXXX    ........................    XXXXXXXXXXXXXXXX",
"XXXXXXXXXXXXXXXX    ........................    XXXXXXXXXXXXXXXX",
"XXXXXXXXXXXXXXXX    ........................    XXXXXXXXXXXXXXXX",
"XXXXXXXXXXXXXXXX    ........................    XXXXXXXXXXXXXXXX",
"XXXXXXXXXXXXXXXX    ........................    XXXXXXXXXXXXXXXX",
"XXXXXXXXXXXXXXXX    ........................    XXXXXXXXXXXXXXXX",
"XXXXXXXXXXXXXXXX    ........................    XXXXXXXXXXXXXXXX",
"XXXXXXXXXXXXXXXX    ........................    XXXXXXXXXXXXXXXX",
"XXXXXXXXXXXXXXXXXXXX    ................    XXXXXXXXXXXXXXXXXXXX",
"XXXXXXXXXXXXXXXXXXXX    ................    XXXXXXXXXXXXXXXXXXXX",
"XXXXXXXXXXXXXXXXXXXX    ................    XXXXXXXXXXXXXXXXXXXX",
"XXXXXXXXXXXXXXXXXXXX    ................    XXXXXXXXXXXXXXXXXXXX",
"XXXXXXXXXXXXXXXX                                XXXXXXXXXXXXXXXX",
"XXXXXXXXXXXXXXXX                                XXXXXXXXXXXXXXXX",
"XXXXXXXXXXXXXXXX                                XXXXXXXXXXXXXXXX",
"XXXXXXXXXXXXXXXX                                XXXXXXXXXXXXXXXX",
"XXXXXXXXXXXX    ................................    XXXXXXXXXXXX",
"XXXXXXXXXXXX    ................................    XXXXXXXXXXXX",
"XXXXXXXXXXXX    ................................    XXXXXXXXXXXX",
"XXXXXXXXXXXX    ................................    XXXXXXXXXXXX",
"XXXXXXXXXXXX                                        XXXXXXXXXXXX",
"XXXXXXXXXXXX                                        XXXXXXXXXXXX",
"XXXXXXXXXXXX                                        XXXXXXXXXXXX",
"XXXXXXXXXXXX                                        XXXXXXXXXXXX",
"XXXXXXXXXXXXXXXXXXXXXXXXXXXXXXXXXXXXXXXXXXXXXXXXXXXXXXXXXXXXXXXX",
"XXXXXXXXXXXXXXXXXXXXXXXXXXXXXXXXXXXXXXXXXXXXXXXXXXXXXXXXXXXXXXXX",
"XXXXXXXXXXXXXXXXXXXXXXXXXXXXXXXXXXXXXXXXXXXXXXXXXXXXXXXXXXXXXXXX",
"XXXXXXXXXXXXXXXXXXXXXXXXXXXXXXXXXXXXXXXXXXXXXXXXXXXXXXXXXXXXXXXX"
};
