/* XPM */
static char *_5582_ed836cec9e7a26dbf397c49a59cfad2542b7a89e6875f8ca624ed27582228716[] = {
/* columns rows colors chars-per-pixel */
"64 64 3 1 ",
"  c black",
". c white",
"X c None",
/* pixels */
"XXXXXXXXXXXXXXXXXXXXXXXXXXXXXXXXXXXXXXXXXXXXXXXXXXXXXXXXXXXXXXXX",
"XXXXXXXXXXXXXXXXXXXXXXXXXXXXXXXXXXXXXXXXXXXXXXXXXXXXXXXXXXXXXXXX",
"XXXXXXXXXXXXXXXXXXXXXXXXXXXXXXXXXXXXXXXXXXXXXXXXXXXXXXXXXXXXXXXX",
"XXXXXXXXXXXXXXXXXXXXXXXXXXXXXXXXXXXXXXXXXXXXXXXXXXXXXXXXXXXXXXXX",
"XXXXXXXXXXXXXXXXXXXXXXXXXXXX        XXXXXXXXXXXXXXXXXXXXXXXXXXXX",
"XXXXXXXXXXXXXXXXXXXXXXXXXXXX        XXXXXXXXXXXXXXXXXXXXXXXXXXXX",
"XXXXXXXXXXXXXXXXXXXXXXXXXXXX        XXXXXXXXXXXXXXXXXXXXXXXXXXXX",
"XXXXXXXXXXXXXXXXXXXXXXXXXXXX        XXXXXXXXXXXXXXXXXXXXXXXXXXXX",
"XXXXXXXXXXXXXXXXXXXXXXXX    ........    XXXXXXXXXXXXXXXXXXXXXXXX",
"XXXXXXXXXXXXXXXXXXXXXXXX    ........    XXXXXXXXXXXXXXXXXXXXXXXX",
"XXXXXXXXXXXXXXXXXXXXXXXX    ........    XXXXXXXXXXXXXXXXXXXXXXXX",
"XXXXXXXXXXXXXXXXXXXXXXXX    ........    XXXXXXXXXXXXXXXXXXXXXXXX",
"XXXXXXXXXXXXXXXXXXXXXXXX    ........    XXXXXXXXXXXXXXXXXXXXXXXX",
"XXXXXXXXXXXXXXXXXXXXXXXX    ........    XXXXXXXXXXXXXXXXXXXXXXXX",
"XXXXXXXXXXXXXXXXXXXXXXXX    ........    XXXXXXXXXXXXXXXXXXXXXXXX",
"XXXXXXXXXXXXXXXXXXXXXXXX    ........    XXXXXXXXXXXXXXXXXXXXXXXX",
"XXXXXXXXXXXX            XXXX        XXXX            XXXXXXXXXXXX",
"XXXXXXXXXXXX            XXXX        XXXX            XXXXXXXXXXXX",
"XXXXXXXXXXXX            XXXX        XXXX            XXXXXXXXXXXX",
"XXXXXXXXXXXX            XXXX        XXXX            XXXXXXXXXXXX",
"XXXXXXXX    ............    XXXXXXXX    ............    XXXXXXXX",
"XXXXXXXX    ............    XXXXXXXX    ............    XXXXXXXX",
"XXXXXXXX    ............    XXXXXXXX    ............    XXXXXXXX",
"XXXXXXXX    ............    XXXXXXXX    ............    XXXXXXXX",
"XXXXXXXX    ....XXXX    ....        ....    XXXX....    XXXXXXXX",
"XXXXXXXX    ....XXXX    ....        ....    XXXX....    XXXXXXXX",
"XXXXXXXX    ....XXXX    ....        ....    XXXX....    XXXXXXXX",
"XXXXXXXX    ....XXXX    ....        ....    XXXX....    XXXXXXXX",
"XXXXXXXX    ....XXXXXXXX    ........    XXXXXXXX....    XXXXXXXX",
"XXXXXXXX    ....XXXXXXXX    ........    XXXXXXXX....    XXXXXXXX",
"XXXXXXXX    ....XXXXXXXX    ........    XXXXXXXX....    XXXXXXXX",
"XXXXXXXX    ....XXXXXXXX    ........    XXXXXXXX....    XXXXXXXX",
"XXXXXXXX    ....    XXXXXXXX........XXXXXXXX    ....    XXXXXXXX",
"XXXXXXXX    ....    XXXXXXXX........XXXXXXXX    ....    XXXXXXXX",
"XXXXXXXX    ....    XXXXXXXX........XXXXXXXX    ....    XXXXXXXX",
"XXXXXXXX    ....    XXXXXXXX........XXXXXXXX    ....    XXXXXXXX",
"XXXXXXXXXXXX    ....        ........        ....    XXXXXXXXXXXX",
"XXXXXXXXXXXX    ....        ........        ....    XXXXXXXXXXXX",
"XXXXXXXXXXXX    ....        ........        ....    XXXXXXXXXXXX",
"XXXXXXXXXXXX    ....        ........        ....    XXXXXXXXXXXX",
"XXXXXXXXXXXX    ................................    XXXXXXXXXXXX",
"XXXXXXXXXXXX    ................................    XXXXXXXXXXXX",
"XXXXXXXXXXXX    ................................    XXXXXXXXXXXX",
"XXXXXXXXXXXX    ................................    XXXXXXXXXXXX",
"XXXXXXXXXXXXXXXX    ........................    XXXXXXXXXXXXXXXX",
"XXXXXXXXXXXXXXXX    ........................    XXXXXXXXXXXXXXXX",
"XXXXXXXXXXXXXXXX    ........................    XXXXXXXXXXXXXXXX",
"XXXXXXXXXXXXXXXX    ........................    XXXXXXXXXXXXXXXX",
"XXXXXXXXXXXXXXXX                                XXXXXXXXXXXXXXXX",
"XXXXXXXXXXXXXXXX                                XXXXXXXXXXXXXXXX",
"XXXXXXXXXXXXXXXX                                XXXXXXXXXXXXXXXX",
"XXXXXXXXXXXXXXXX                                XXXXXXXXXXXXXXXX",
"XXXXXXXXXXXX    ................................    XXXXXXXXXXXX",
"XXXXXXXXXXXX    ................................    XXXXXXXXXXXX",
"XXXXXXXXXXXX    ................................    XXXXXXXXXXXX",
"XXXXXXXXXXXX    ................................    XXXXXXXXXXXX",
"XXXXXXXXXXXX                                        XXXXXXXXXXXX",
"XXXXXXXXXXXX                                        XXXXXXXXXXXX",
"XXXXXXXXXXXX                                        XXXXXXXXXXXX",
"XXXXXXXXXXXX                                        XXXXXXXXXXXX",
"XXXXXXXXXXXXXXXXXXXXXXXXXXXXXXXXXXXXXXXXXXXXXXXXXXXXXXXXXXXXXXXX",
"XXXXXXXXXXXXXXXXXXXXXXXXXXXXXXXXXXXXXXXXXXXXXXXXXXXXXXXXXXXXXXXX",
"XXXXXXXXXXXXXXXXXXXXXXXXXXXXXXXXXXXXXXXXXXXXXXXXXXXXXXXXXXXXXXXX",
"XXXXXXXXXXXXXXXXXXXXXXXXXXXXXXXXXXXXXXXXXXXXXXXXXXXXXXXXXXXXXXXX"
};
