/* XPM */
static char *_8034_bdbe424627fe63a1c71fd2cd6c7bbe64009db0f711bcf105aa79d06716b3a071[] = {
/* columns rows colors chars-per-pixel */
"64 64 3 1 ",
"  c black",
". c white",
"X c None",
/* pixels */
"XXXXXXXXXXXXXXXXXXXXXXXXXXXXXXXXXXXXXXXXXXXXXXXXXXXXXXXXXXXXXXXX",
"XXXXXXXXXXXXXXXXXXXXXXXXXXXXXXXXXXXXXXXXXXXXXXXXXXXXXXXXXXXXXXXX",
"XXXXXXXXXXXXXXXXXXXXXXXXXXXXXXXXXXXXXXXXXXXXXXXXXXXXXXXXXXXXXXXX",
"XXXXXXXXXXXXXXXXXXXXXXXXXXXXXXXXXXXXXXXXXXXXXXXXXXXXXXXXXXXXXXXX",
"XXXXXXXXXXXXXXXX                XXXXXXXXXXXXXXXXXXXXXXXXXXXXXXXX",
"XXXXXXXXXXXXXXXX                XXXXXXXXXXXXXXXXXXXXXXXXXXXXXXXX",
"XXXXXXXXXXXXXXXX                XXXXXXXXXXXXXXXXXXXXXXXXXXXXXXXX",
"XXXXXXXXXXXXXXXX                XXXXXXXXXXXXXXXXXXXXXXXXXXXXXXXX",
"XXXXXXXXXXXXXXXX    ............            XXXXXXXXXXXXXXXXXXXX",
"XXXXXXXXXXXXXXXX    ............            XXXXXXXXXXXXXXXXXXXX",
"XXXXXXXXXXXXXXXX    ............            XXXXXXXXXXXXXXXXXXXX",
"XXXXXXXXXXXXXXXX    ............            XXXXXXXXXXXXXXXXXXXX",
"XXXXXXXXXXXXXXXXXXXX    ....................    XXXXXXXXXXXXXXXX",
"XXXXXXXXXXXXXXXXXXXX    ....................    XXXXXXXXXXXXXXXX",
"XXXXXXXXXXXXXXXXXXXX    ....................    XXXXXXXXXXXXXXXX",
"XXXXXXXXXXXXXXXXXXXX    ....................    XXXXXXXXXXXXXXXX",
"XXXXXXXXXXXXXXXX    ....    ....................    XXXXXXXXXXXX",
"XXXXXXXXXXXXXXXX    ....    ....................    XXXXXXXXXXXX",
"XXXXXXXXXXXXXXXX    ....    ....................    XXXXXXXXXXXX",
"XXXXXXXXXXXXXXXX    ....    ....................    XXXXXXXXXXXX",
"XXXXXXXXXXXX    ................................    XXXXXXXXXXXX",
"XXXXXXXXXXXX    ................................    XXXXXXXXXXXX",
"XXXXXXXXXXXX    ................................    XXXXXXXXXXXX",
"XXXXXXXXXXXX    ................................    XXXXXXXXXXXX",
"XXXXXXXX    ....................    ............    XXXXXXXXXXXX",
"XXXXXXXX    ....................    ............    XXXXXXXXXXXX",
"XXXXXXXX    ....................    ............    XXXXXXXXXXXX",
"XXXXXXXX    ....................    ............    XXXXXXXXXXXX",
"XXXXXXXX    ........            ................    XXXXXXXXXXXX",
"XXXXXXXX    ........            ................    XXXXXXXXXXXX",
"XXXXXXXX    ........            ................    XXXXXXXXXXXX",
"XXXXXXXX    ........            ................    XXXXXXXXXXXX",
"XXXXXXXXXXXX        XXXXXXXX    ................    XXXXXXXXXXXX",
"XXXXXXXXXXXX        XXXXXXXX    ................    XXXXXXXXXXXX",
"XXXXXXXXXXXX        XXXXXXXX    ................    XXXXXXXXXXXX",
"XXXXXXXXXXXX        XXXXXXXX    ................    XXXXXXXXXXXX",
"XXXXXXXXXXXXXXXXXXXXXXXX    ....................    XXXXXXXXXXXX",
"XXXXXXXXXXXXXXXXXXXXXXXX    ....................    XXXXXXXXXXXX",
"XXXXXXXXXXXXXXXXXXXXXXXX    ....................    XXXXXXXXXXXX",
"XXXXXXXXXXXXXXXXXXXXXXXX    ....................    XXXXXXXXXXXX",
"XXXXXXXXXXXXXXXXXXXX    ....................    XXXXXXXXXXXXXXXX",
"XXXXXXXXXXXXXXXXXXXX    ....................    XXXXXXXXXXXXXXXX",
"XXXXXXXXXXXXXXXXXXXX    ....................    XXXXXXXXXXXXXXXX",
"XXXXXXXXXXXXXXXXXXXX    ....................    XXXXXXXXXXXXXXXX",
"XXXXXXXXXXXXXXXX    ........................    XXXXXXXXXXXXXXXX",
"XXXXXXXXXXXXXXXX    ........................    XXXXXXXXXXXXXXXX",
"XXXXXXXXXXXXXXXX    ........................    XXXXXXXXXXXXXXXX",
"XXXXXXXXXXXXXXXX    ........................    XXXXXXXXXXXXXXXX",
"XXXXXXXXXXXXXXXX                                XXXXXXXXXXXXXXXX",
"XXXXXXXXXXXXXXXX                                XXXXXXXXXXXXXXXX",
"XXXXXXXXXXXXXXXX                                XXXXXXXXXXXXXXXX",
"XXXXXXXXXXXXXXXX                                XXXXXXXXXXXXXXXX",
"XXXXXXXXXXXX    ................................    XXXXXXXXXXXX",
"XXXXXXXXXXXX    ................................    XXXXXXXXXXXX",
"XXXXXXXXXXXX    ................................    XXXXXXXXXXXX",
"XXXXXXXXXXXX    ................................    XXXXXXXXXXXX",
"XXXXXXXXXXXX                                        XXXXXXXXXXXX",
"XXXXXXXXXXXX                                        XXXXXXXXXXXX",
"XXXXXXXXXXXX                                        XXXXXXXXXXXX",
"XXXXXXXXXXXX                                        XXXXXXXXXXXX",
"XXXXXXXXXXXXXXXXXXXXXXXXXXXXXXXXXXXXXXXXXXXXXXXXXXXXXXXXXXXXXXXX",
"XXXXXXXXXXXXXXXXXXXXXXXXXXXXXXXXXXXXXXXXXXXXXXXXXXXXXXXXXXXXXXXX",
"XXXXXXXXXXXXXXXXXXXXXXXXXXXXXXXXXXXXXXXXXXXXXXXXXXXXXXXXXXXXXXXX",
"XXXXXXXXXXXXXXXXXXXXXXXXXXXXXXXXXXXXXXXXXXXXXXXXXXXXXXXXXXXXXXXX"
};
