/* XPM */
static char *_0088_c89d6dc1d84c1d618130ab8bc29789584a09f42f57892104e7589c94c69f9f4e[] = {
/* columns rows colors chars-per-pixel */
"64 64 3 1 ",
"  c black",
". c white",
"X c None",
/* pixels */
"XXXXXXXXXXXXXXXXXXXXXXXXXXXXXXXXXXXXXXXXXXXXXXXXXXXXXXXXXXXXXXXX",
"XXXXXXXXXXXXXXXXXXXXXXXXXXXXXXXXXXXXXXXXXXXXXXXXXXXXXXXXXXXXXXXX",
"XXXXXXXXXXXXXXXXXXXXXXXXXXXXXXXXXXXXXXXXXXXXXXXXXXXXXXXXXXXXXXXX",
"XXXXXXXXXXXXXXXXXXXXXXXXXXXXXXXXXXXXXXXXXXXXXXXXXXXXXXXXXXXXXXXX",
"XXXXXXXXXXXXXXXXXXXXXXXXXXXXXXXXXXXXXXXXXXXXXXXXXXXXXXXXXXXXXXXX",
"XXXXXXXXXXXXXXXXXXXXXXXXXXXXXXXXXXXXXXXXXXXXXXXXXXXXXXXXXXXXXXXX",
"XXXXXXXXXXXXXXXXXXXXXXXXXXXXXXXXXXXXXXXXXXXXXXXXXXXXXXXXXXXXXXXX",
"XXXXXXXXXXXXXXXXXXXXXXXXXXXXXXXXXXXXXXXXXXXXXXXXXXXXXXXXXXXXXXXX",
"XXXXXXXXXXXXXXXXXXXXXXXXXXXXXXXXXXXXXXXXXXXXXXXXXXXXXXXXXXXXXXXX",
"XXXXXXXXXXXXXXXXXXXXXXXXXXXXXXXXXXXXXXXXXXXXXXXXXXXXXXXXXXXXXXXX",
"XXXXXXXXXXXXXXXXXXXXXXXXXXXXXXXXXXXXXXXXXXXXXXXXXXXXXXXXXXXXXXXX",
"XXXXXXXXXXXXXXXXXXXXXXXXXXXXXXXXXXXXXXXXXXXXXXXXXXXXXXXXXXXXXXXX",
"XXXXXXXXXXXXXXXXXXXXXXXX                XXXXXXXXXXXXXXXXXXXXXXXX",
"XXXXXXXXXXXXXXXXXXXXXXXX                XXXXXXXXXXXXXXXXXXXXXXXX",
"XXXXXXXXXXXXXXXXXXXXXXXX                XXXXXXXXXXXXXXXXXXXXXXXX",
"XXXXXXXXXXXXXXXXXXXXXXXX                XXXXXXXXXXXXXXXXXXXXXXXX",
"XXXXXXXXXXXXXXXXXXXX    ................    XXXXXXXXXXXXXXXXXXXX",
"XXXXXXXXXXXXXXXXXXXX    ................    XXXXXXXXXXXXXXXXXXXX",
"XXXXXXXXXXXXXXXXXXXX    ................    XXXXXXXXXXXXXXXXXXXX",
"XXXXXXXXXXXXXXXXXXXX    ................    XXXXXXXXXXXXXXXXXXXX",
"XXXXXXXXXXXXXXXXXXXX    ................    XXXXXXXXXXXXXXXXXXXX",
"XXXXXXXXXXXXXXXXXXXX    ................    XXXXXXXXXXXXXXXXXXXX",
"XXXXXXXXXXXXXXXXXXXX    ................    XXXXXXXXXXXXXXXXXXXX",
"XXXXXXXXXXXXXXXXXXXX    ................    XXXXXXXXXXXXXXXXXXXX",
"XXXXXXXXXXXXXXXXXXXX    ................    XXXXXXXXXXXXXXXXXXXX",
"XXXXXXXXXXXXXXXXXXXX    ................    XXXXXXXXXXXXXXXXXXXX",
"XXXXXXXXXXXXXXXXXXXX    ................    XXXXXXXXXXXXXXXXXXXX",
"XXXXXXXXXXXXXXXXXXXX    ................    XXXXXXXXXXXXXXXXXXXX",
"XXXXXXXXXXXXXXXXXXXXXXXX    ........    XXXXXXXXXXXXXXXXXXXXXXXX",
"XXXXXXXXXXXXXXXXXXXXXXXX    ........    XXXXXXXXXXXXXXXXXXXXXXXX",
"XXXXXXXXXXXXXXXXXXXXXXXX    ........    XXXXXXXXXXXXXXXXXXXXXXXX",
"XXXXXXXXXXXXXXXXXXXXXXXX    ........    XXXXXXXXXXXXXXXXXXXXXXXX",
"XXXXXXXXXXXXXXXXXXXX    ................    XXXXXXXXXXXXXXXXXXXX",
"XXXXXXXXXXXXXXXXXXXX    ................    XXXXXXXXXXXXXXXXXXXX",
"XXXXXXXXXXXXXXXXXXXX    ................    XXXXXXXXXXXXXXXXXXXX",
"XXXXXXXXXXXXXXXXXXXX    ................    XXXXXXXXXXXXXXXXXXXX",
"XXXXXXXXXXXXXXXXXXXX    ................    XXXXXXXXXXXXXXXXXXXX",
"XXXXXXXXXXXXXXXXXXXX    ................    XXXXXXXXXXXXXXXXXXXX",
"XXXXXXXXXXXXXXXXXXXX    ................    XXXXXXXXXXXXXXXXXXXX",
"XXXXXXXXXXXXXXXXXXXX    ................    XXXXXXXXXXXXXXXXXXXX",
"XXXXXXXXXXXXXXXXXXXXXXXX    ........    XXXXXXXXXXXXXXXXXXXXXXXX",
"XXXXXXXXXXXXXXXXXXXXXXXX    ........    XXXXXXXXXXXXXXXXXXXXXXXX",
"XXXXXXXXXXXXXXXXXXXXXXXX    ........    XXXXXXXXXXXXXXXXXXXXXXXX",
"XXXXXXXXXXXXXXXXXXXXXXXX    ........    XXXXXXXXXXXXXXXXXXXXXXXX",
"XXXXXXXXXXXXXXXXXXXX    ................    XXXXXXXXXXXXXXXXXXXX",
"XXXXXXXXXXXXXXXXXXXX    ................    XXXXXXXXXXXXXXXXXXXX",
"XXXXXXXXXXXXXXXXXXXX    ................    XXXXXXXXXXXXXXXXXXXX",
"XXXXXXXXXXXXXXXXXXXX    ................    XXXXXXXXXXXXXXXXXXXX",
"XXXXXXXXXXXXXXXX    ........................    XXXXXXXXXXXXXXXX",
"XXXXXXXXXXXXXXXX    ........................    XXXXXXXXXXXXXXXX",
"XXXXXXXXXXXXXXXX    ........................    XXXXXXXXXXXXXXXX",
"XXXXXXXXXXXXXXXX    ........................    XXXXXXXXXXXXXXXX",
"XXXXXXXXXXXXXXXX    ........................    XXXXXXXXXXXXXXXX",
"XXXXXXXXXXXXXXXX    ........................    XXXXXXXXXXXXXXXX",
"XXXXXXXXXXXXXXXX    ........................    XXXXXXXXXXXXXXXX",
"XXXXXXXXXXXXXXXX    ........................    XXXXXXXXXXXXXXXX",
"XXXXXXXXXXXXXXXX                                XXXXXXXXXXXXXXXX",
"XXXXXXXXXXXXXXXX                                XXXXXXXXXXXXXXXX",
"XXXXXXXXXXXXXXXX                                XXXXXXXXXXXXXXXX",
"XXXXXXXXXXXXXXXX                                XXXXXXXXXXXXXXXX",
"XXXXXXXXXXXXXXXXXXXXXXXXXXXXXXXXXXXXXXXXXXXXXXXXXXXXXXXXXXXXXXXX",
"XXXXXXXXXXXXXXXXXXXXXXXXXXXXXXXXXXXXXXXXXXXXXXXXXXXXXXXXXXXXXXXX",
"XXXXXXXXXXXXXXXXXXXXXXXXXXXXXXXXXXXXXXXXXXXXXXXXXXXXXXXXXXXXXXXX",
"XXXXXXXXXXXXXXXXXXXXXXXXXXXXXXXXXXXXXXXXXXXXXXXXXXXXXXXXXXXXXXXX"
};
