/* XPM */
static char *_9040_04bf9caa14cd4eb27b3b7e706f35025f2e17e7569e1e91dd2ca59d6807680b33[] = {
/* columns rows colors chars-per-pixel */
"64 64 3 1 ",
"  c black",
". c white",
"X c None",
/* pixels */
"XXXXXXXXXXXXXXXXXXXXXXXXXXXXXXXXXXXXXXXXXXXXXXXXXXXXXXXXXXXXXXXX",
"XXXXXXXXXXXXXXXXXXXXXXXXXXXXXXXXXXXXXXXXXXXXXXXXXXXXXXXXXXXXXXXX",
"XXXXXXXXXXXXXXXXXXXXXXXXXXXXXXXXXXXXXXXXXXXXXXXXXXXXXXXXXXXXXXXX",
"XXXXXXXXXXXXXXXXXXXXXXXXXXXXXXXXXXXXXXXXXXXXXXXXXXXXXXXXXXXXXXXX",
"XXXXXXXXXXXXXXXXXXXXXXXXXXXX        XXXXXXXXXXXXXXXXXXXXXXXXXXXX",
"XXXXXXXXXXXXXXXXXXXXXXXXXXXX        XXXXXXXXXXXXXXXXXXXXXXXXXXXX",
"XXXXXXXXXXXXXXXXXXXXXXXXXXXX        XXXXXXXXXXXXXXXXXXXXXXXXXXXX",
"XXXXXXXXXXXXXXXXXXXXXXXXXXXX        XXXXXXXXXXXXXXXXXXXXXXXXXXXX",
"XXXXXXXXXXXXXXXXXXXXXXXX    ........    XXXXXXXXXXXXXXXXXXXXXXXX",
"XXXXXXXXXXXXXXXXXXXXXXXX    ........    XXXXXXXXXXXXXXXXXXXXXXXX",
"XXXXXXXXXXXXXXXXXXXXXXXX    ........    XXXXXXXXXXXXXXXXXXXXXXXX",
"XXXXXXXXXXXXXXXXXXXXXXXX    ........    XXXXXXXXXXXXXXXXXXXXXXXX",
"XXXXXXXXXXXXXXXXXXXXXXXX    ........    XXXXXXXXXXXXXXXXXXXXXXXX",
"XXXXXXXXXXXXXXXXXXXXXXXX    ........    XXXXXXXXXXXXXXXXXXXXXXXX",
"XXXXXXXXXXXXXXXXXXXXXXXX    ........    XXXXXXXXXXXXXXXXXXXXXXXX",
"XXXXXXXXXXXXXXXXXXXXXXXX    ........    XXXXXXXXXXXXXXXXXXXXXXXX",
"XXXXXXXXXXXXXXXXXXXXXXXXXXXX        XXXXXXXXXXXXXXXXXXXXXXXXXXXX",
"XXXXXXXXXXXXXXXXXXXXXXXXXXXX        XXXXXXXXXXXXXXXXXXXXXXXXXXXX",
"XXXXXXXXXXXXXXXXXXXXXXXXXXXX        XXXXXXXXXXXXXXXXXXXXXXXXXXXX",
"XXXXXXXXXXXXXXXXXXXXXXXXXXXX        XXXXXXXXXXXXXXXXXXXXXXXXXXXX",
"XXXX    XXXXXXXXXXXXXXXXXXXXXXXXXXXXXXXXXXXXXXXXXXXXXXXX    XXXX",
"XXXX    XXXXXXXXXXXXXXXXXXXXXXXXXXXXXXXXXXXXXXXXXXXXXXXX    XXXX",
"XXXX    XXXXXXXXXXXXXXXXXXXXXXXXXXXXXXXXXXXXXXXXXXXXXXXX    XXXX",
"XXXX    XXXXXXXXXXXXXXXXXXXXXXXXXXXXXXXXXXXXXXXXXXXXXXXX    XXXX",
"XXXXXXXX        XXXXXXXXXXXX        XXXXXXXXXXXX        XXXXXXXX",
"XXXXXXXX        XXXXXXXXXXXX        XXXXXXXXXXXX        XXXXXXXX",
"XXXXXXXX        XXXXXXXXXXXX        XXXXXXXXXXXX        XXXXXXXX",
"XXXXXXXX        XXXXXXXXXXXX        XXXXXXXXXXXX        XXXXXXXX",
"XXXXXXXX    ....    XXXX    ........    XXXX    ....    XXXXXXXX",
"XXXXXXXX    ....    XXXX    ........    XXXX    ....    XXXXXXXX",
"XXXXXXXX    ....    XXXX    ........    XXXX    ....    XXXXXXXX",
"XXXXXXXX    ....    XXXX    ........    XXXX    ....    XXXXXXXX",
"XXXXXXXX    ........    ................    ........    XXXXXXXX",
"XXXXXXXX    ........    ................    ........    XXXXXXXX",
"XXXXXXXX    ........    ................    ........    XXXXXXXX",
"XXXXXXXX    ........    ................    ........    XXXXXXXX",
"XXXXXXXXXXXX    ................................    XXXXXXXXXXXX",
"XXXXXXXXXXXX    ................................    XXXXXXXXXXXX",
"XXXXXXXXXXXX    ................................    XXXXXXXXXXXX",
"XXXXXXXXXXXX    ................................    XXXXXXXXXXXX",
"XXXXXXXXXXXX    ................................    XXXXXXXXXXXX",
"XXXXXXXXXXXX    ................................    XXXXXXXXXXXX",
"XXXXXXXXXXXX    ................................    XXXXXXXXXXXX",
"XXXXXXXXXXXX    ................................    XXXXXXXXXXXX",
"XXXXXXXXXXXXXXXX    ........................    XXXXXXXXXXXXXXXX",
"XXXXXXXXXXXXXXXX    ........................    XXXXXXXXXXXXXXXX",
"XXXXXXXXXXXXXXXX    ........................    XXXXXXXXXXXXXXXX",
"XXXXXXXXXXXXXXXX    ........................    XXXXXXXXXXXXXXXX",
"XXXXXXXXXXXXXXXX                                XXXXXXXXXXXXXXXX",
"XXXXXXXXXXXXXXXX                                XXXXXXXXXXXXXXXX",
"XXXXXXXXXXXXXXXX                                XXXXXXXXXXXXXXXX",
"XXXXXXXXXXXXXXXX                                XXXXXXXXXXXXXXXX",
"XXXXXXXXXXXX    ................................    XXXXXXXXXXXX",
"XXXXXXXXXXXX    ................................    XXXXXXXXXXXX",
"XXXXXXXXXXXX    ................................    XXXXXXXXXXXX",
"XXXXXXXXXXXX    ................................    XXXXXXXXXXXX",
"XXXXXXXXXXXX                                        XXXXXXXXXXXX",
"XXXXXXXXXXXX                                        XXXXXXXXXXXX",
"XXXXXXXXXXXX                                        XXXXXXXXXXXX",
"XXXXXXXXXXXX                                        XXXXXXXXXXXX",
"XXXXXXXXXXXXXXXXXXXXXXXXXXXXXXXXXXXXXXXXXXXXXXXXXXXXXXXXXXXXXXXX",
"XXXXXXXXXXXXXXXXXXXXXXXXXXXXXXXXXXXXXXXXXXXXXXXXXXXXXXXXXXXXXXXX",
"XXXXXXXXXXXXXXXXXXXXXXXXXXXXXXXXXXXXXXXXXXXXXXXXXXXXXXXXXXXXXXXX",
"XXXXXXXXXXXXXXXXXXXXXXXXXXXXXXXXXXXXXXXXXXXXXXXXXXXXXXXXXXXXXXXX"
};
