/* XPM */
static char *_7052_a18165e57b2f2dc8740cb8c7e068e5dec4e1f4a471f61eb6da57ed02ba3f4114[] = {
/* columns rows colors chars-per-pixel */
"64 64 3 1 ",
"  c black",
". c white",
"X c None",
/* pixels */
"XXXXXXXXXXXXXXXXXXXXXXXXXXXXXXXXXXXXXXXXXXXXXXXXXXXXXXXXXXXXXXXX",
"XXXXXXXXXXXXXXXXXXXXXXXXXXXXXXXXXXXXXXXXXXXXXXXXXXXXXXXXXXXXXXXX",
"XXXXXXXXXXXXXXXXXXXXXXXXXXXXXXXXXXXXXXXXXXXXXXXXXXXXXXXXXXXXXXXX",
"XXXXXXXXXXXXXXXXXXXXXXXXXXXXXXXXXXXXXXXXXXXXXXXXXXXXXXXXXXXXXXXX",
"XXXXXXXXXXXX            XXXX                        XXXXXXXXXXXX",
"XXXXXXXXXXXX            XXXX                        XXXXXXXXXXXX",
"XXXXXXXXXXXX            XXXX                        XXXXXXXXXXXX",
"XXXXXXXXXXXX            XXXX                        XXXXXXXXXXXX",
"XXXXXXXXXXXX    ....    XXXX    ................    XXXXXXXXXXXX",
"XXXXXXXXXXXX    ....    XXXX    ................    XXXXXXXXXXXX",
"XXXXXXXXXXXX    ....    XXXX    ................    XXXXXXXXXXXX",
"XXXXXXXXXXXX    ....    XXXX    ................    XXXXXXXXXXXX",
"XXXXXXXXXXXX    ....            ................    XXXXXXXXXXXX",
"XXXXXXXXXXXX    ....            ................    XXXXXXXXXXXX",
"XXXXXXXXXXXX    ....            ................    XXXXXXXXXXXX",
"XXXXXXXXXXXX    ....            ................    XXXXXXXXXXXX",
"XXXXXXXXXXXX    ................................    XXXXXXXXXXXX",
"XXXXXXXXXXXX    ................................    XXXXXXXXXXXX",
"XXXXXXXXXXXX    ................................    XXXXXXXXXXXX",
"XXXXXXXXXXXX    ................................    XXXXXXXXXXXX",
"XXXXXXXXXXXX                                        XXXXXXXXXXXX",
"XXXXXXXXXXXX                                        XXXXXXXXXXXX",
"XXXXXXXXXXXX                                        XXXXXXXXXXXX",
"XXXXXXXXXXXX                                        XXXXXXXXXXXX",
"XXXXXXXXXXXXXXXX    ........................    XXXXXXXXXXXXXXXX",
"XXXXXXXXXXXXXXXX    ........................    XXXXXXXXXXXXXXXX",
"XXXXXXXXXXXXXXXX    ........................    XXXXXXXXXXXXXXXX",
"XXXXXXXXXXXXXXXX    ........................    XXXXXXXXXXXXXXXX",
"XXXXXXXXXXXXXXXXXXXX                        XXXXXXXXXXXXXXXXXXXX",
"XXXXXXXXXXXXXXXXXXXX                        XXXXXXXXXXXXXXXXXXXX",
"XXXXXXXXXXXXXXXXXXXX                        XXXXXXXXXXXXXXXXXXXX",
"XXXXXXXXXXXXXXXXXXXX                        XXXXXXXXXXXXXXXXXXXX",
"XXXXXXXXXXXXXXXXXXXX    ................    XXXXXXXXXXXXXXXXXXXX",
"XXXXXXXXXXXXXXXXXXXX    ................    XXXXXXXXXXXXXXXXXXXX",
"XXXXXXXXXXXXXXXXXXXX    ................    XXXXXXXXXXXXXXXXXXXX",
"XXXXXXXXXXXXXXXXXXXX    ................    XXXXXXXXXXXXXXXXXXXX",
"XXXXXXXXXXXXXXXXXXXX    ................    XXXXXXXXXXXXXXXXXXXX",
"XXXXXXXXXXXXXXXXXXXX    ................    XXXXXXXXXXXXXXXXXXXX",
"XXXXXXXXXXXXXXXXXXXX    ................    XXXXXXXXXXXXXXXXXXXX",
"XXXXXXXXXXXXXXXXXXXX    ................    XXXXXXXXXXXXXXXXXXXX",
"XXXXXXXXXXXXXXXXXXXX    ................    XXXXXXXXXXXXXXXXXXXX",
"XXXXXXXXXXXXXXXXXXXX    ................    XXXXXXXXXXXXXXXXXXXX",
"XXXXXXXXXXXXXXXXXXXX    ................    XXXXXXXXXXXXXXXXXXXX",
"XXXXXXXXXXXXXXXXXXXX    ................    XXXXXXXXXXXXXXXXXXXX",
"XXXXXXXXXXXXXXXX    ........................    XXXXXXXXXXXXXXXX",
"XXXXXXXXXXXXXXXX    ........................    XXXXXXXXXXXXXXXX",
"XXXXXXXXXXXXXXXX    ........................    XXXXXXXXXXXXXXXX",
"XXXXXXXXXXXXXXXX    ........................    XXXXXXXXXXXXXXXX",
"XXXXXXXXXXXX                                        XXXXXXXXXXXX",
"XXXXXXXXXXXX                                        XXXXXXXXXXXX",
"XXXXXXXXXXXX                                        XXXXXXXXXXXX",
"XXXXXXXXXXXX                                        XXXXXXXXXXXX",
"XXXXXXXX    ........................................    XXXXXXXX",
"XXXXXXXX    ........................................    XXXXXXXX",
"XXXXXXXX    ........................................    XXXXXXXX",
"XXXXXXXX    ........................................    XXXXXXXX",
"XXXXXXXX                                                XXXXXXXX",
"XXXXXXXX                                                XXXXXXXX",
"XXXXXXXX                                                XXXXXXXX",
"XXXXXXXX                                                XXXXXXXX",
"XXXXXXXXXXXXXXXXXXXXXXXXXXXXXXXXXXXXXXXXXXXXXXXXXXXXXXXXXXXXXXXX",
"XXXXXXXXXXXXXXXXXXXXXXXXXXXXXXXXXXXXXXXXXXXXXXXXXXXXXXXXXXXXXXXX",
"XXXXXXXXXXXXXXXXXXXXXXXXXXXXXXXXXXXXXXXXXXXXXXXXXXXXXXXXXXXXXXXX",
"XXXXXXXXXXXXXXXXXXXXXXXXXXXXXXXXXXXXXXXXXXXXXXXXXXXXXXXXXXXXXXXX"
};
